# xmcd
#
# Track frame offsets:
#	183
#	12965
#	34245
#	57220
#	74933
#	95483
#	117783
#	136188
#	153070
#	177383
#	196445
#	221945
#	246183
#
# Disc length: 3477 seconds
#
# Revision: 1
# Processed by: cddbd v1.4PL0 Copyright (c) Steve Scherf et al.
# Submitted via: EasyCDDAExtractor 4.6.0.1
#
DISCID=be0d930d
DTITLE=Michael Katon - Get On The Boogie Train
DYEAR=1992
DGENRE=Blues
TTITLE0=Wake Up Call
TTITLE1=Junior Keep On Walkin'
TTITLE2=Get On The Boogie Train
TTITLE3=You Can Run But You Can't Hide
TTITLE4=Put My Blues Back On
TTITLE5=Where The Wild Ones Go
TTITLE6=Roadtest
TTITLE7=Cadillac Assembly Line
TTITLE8=Every Girl I See
TTITLE9=Walkin' Blues
TTITLE10=The Water Won't Boil
TTITLE11=Rock Me 'Till The Hounds Come Home
TTITLE12=Love Hoo Doo
EXTD=
EXTT0=
EXTT1=
EXTT2=
EXTT3=
EXTT4=
EXTT5=
EXTT6=
EXTT7=
EXTT8=
EXTT9=
EXTT10=
EXTT11=
EXTT12=
PLAYORDER=
